<svg width="28" height="27" viewBox="0 0 28 27" fill="none" xmlns="http://www.w3.org/2000/svg">
<path d="M15.5405 22.9686L21.5056 19.4974C21.9763 19.2226 22.367 18.8296 22.639 18.3573C22.911 17.885 23.0549 17.3498 23.0565 16.8048L23.0731 9.49165C23.0738 8.94213 22.9295 8.40216 22.6547 7.92626C22.3799 7.45036 21.9845 7.05539 21.5082 6.78122L15.4988 3.31793C15.0228 3.04286 14.4824 2.89857 13.9326 2.8997C13.3827 2.90083 12.843 3.04734 12.368 3.32436L6.40288 6.79552C5.93215 7.06998 5.54132 7.46269 5.26915 7.93475C4.99698 8.4068 4.85291 8.94179 4.85122 9.48668L4.83604 16.799C4.83553 17.3487 4.98 17.8889 5.25489 18.3651C5.52978 18.8412 5.92537 19.2364 6.40175 19.5109L12.4111 22.9741C12.8872 23.2484 13.4271 23.3923 13.9766 23.3913C14.526 23.3903 15.0654 23.2445 15.5405 22.9686Z" fill="white"/>
<path d="M14.4157 22.7739C14.4933 22.8193 14.5817 22.843 14.6716 22.8425C14.7614 22.843 14.8498 22.8193 14.9274 22.7739L21.3184 19.0532C21.7146 18.8218 22.0434 18.491 22.2725 18.0936C22.5016 17.6961 22.623 17.2458 22.6247 16.787L22.6433 8.99599C22.6433 8.90616 22.6197 8.81792 22.5748 8.74013C22.5298 8.66233 22.4652 8.59773 22.3874 8.55282C22.3097 8.5079 22.2214 8.48425 22.1316 8.48425C22.0417 8.48425 21.9535 8.5079 21.8757 8.55281L15.4839 12.2721C15.088 12.5037 14.7593 12.8346 14.5302 13.232C14.3011 13.6294 14.1796 14.0796 14.1776 14.5383L14.1598 22.3308C14.1588 22.4208 14.182 22.5094 14.227 22.5874C14.272 22.6654 14.3372 22.7298 14.4157 22.7739Z" fill="#357AA1"/>
<g opacity="0.2">
<path opacity="0.7" d="M14.3509 22.774C14.4285 22.8194 14.5169 22.843 14.6068 22.8426C14.6967 22.8431 14.785 22.8194 14.8626 22.774L18.119 20.8785L22.5642 13.1522L22.5743 8.98882C22.5756 8.89846 22.5524 8.80944 22.5072 8.73118C22.462 8.65292 22.3965 8.58831 22.3176 8.54419L14.1949 22.6343C14.236 22.6917 14.2893 22.7394 14.3509 22.774Z" fill="url(#paint0_linear_49_2707)"/>
<path opacity="0.6" d="M14.1029 18.7655L14.0984 21.2997L21.2615 8.87207L19.0709 10.1484L14.1029 18.7655Z" fill="url(#paint1_linear_49_2707)"/>
</g>
<path d="M17.0411 16.0746C17.0384 15.7689 17.1076 15.4668 17.2434 15.1928C17.3791 14.9189 17.5774 14.6808 17.8223 14.4977C18.2893 14.1895 18.6972 14.3943 18.7331 14.9548C18.7366 15.2606 18.6676 15.5629 18.5318 15.837C18.396 16.1111 18.1973 16.3491 17.9519 16.5316C17.4857 16.8413 17.0778 16.6366 17.0411 16.0746Z" fill="white"/>
<path d="M21.5149 7.38607L15.3062 3.78391C14.8591 3.52632 14.3521 3.39075 13.836 3.39078C13.32 3.3908 12.813 3.52642 12.3659 3.78405L6.19634 7.35329C6.11249 7.40282 6.04296 7.4733 5.99455 7.5578C5.94615 7.64231 5.92054 7.73794 5.92023 7.83533C5.91993 7.93271 5.94494 8.02851 5.99281 8.11332C6.04069 8.19812 6.10978 8.26903 6.19332 8.31909L12.4012 11.9198C12.8481 12.1783 13.3553 12.3145 13.8716 12.3147C14.3879 12.3149 14.8951 12.1792 15.3423 11.9211L21.5119 8.35187C21.5957 8.30234 21.6653 8.23187 21.7137 8.14736C21.7621 8.06286 21.7877 7.96722 21.788 7.86983C21.7883 7.77245 21.7633 7.67665 21.7154 7.59185C21.6675 7.50704 21.5984 7.43613 21.5149 7.38607Z" fill="#357AA1"/>
<path style="mix-blend-mode:screen" d="M15.3062 3.78391C14.8591 3.52632 14.3521 3.39075 13.836 3.39078C13.32 3.3908 12.813 3.52642 12.3659 3.78405L6.19634 7.35329C6.11249 7.40282 6.04296 7.4733 5.99455 7.5578C5.94615 7.64231 5.92054 7.73794 5.92023 7.83533C5.91993 7.93271 5.94494 8.02851 5.99281 8.11332C6.04069 8.19812 6.10978 8.26903 6.19332 8.31909L10.6692 10.9142C10.8434 10.7911 11.0176 10.668 11.1952 10.5507C14.1204 8.59843 17.4855 7.40491 20.987 7.07776L15.3062 3.78391Z" fill="url(#paint2_linear_49_2707)"/>
<path d="M14.2377 9.66684C14.712 9.94228 14.7136 10.3887 14.2416 10.6615C13.9753 10.7965 13.6808 10.8667 13.3822 10.8661C13.0836 10.8655 12.7894 10.7943 12.5236 10.6581C12.0479 10.3835 12.0471 9.9386 12.5293 9.65998C12.7946 9.52688 13.0875 9.45814 13.3843 9.45933C13.6811 9.46052 13.9735 9.53161 14.2377 9.66684Z" fill="white"/>
<path d="M16.3105 8.46762C16.7848 8.74306 16.7864 9.18944 16.3129 9.46307C16.0468 9.59779 15.7525 9.66764 15.4542 9.66692C15.1559 9.6662 14.862 9.59493 14.5965 9.45892C14.1222 9.18349 14.1199 8.73938 14.5934 8.46575C14.8595 8.33058 15.1538 8.26028 15.4522 8.2606C15.7506 8.26093 16.0447 8.33187 16.3105 8.46762Z" fill="white"/>
<path d="M18.5405 7.17862C19.0162 7.45323 19.0171 7.89816 18.545 8.17096C18.2791 8.3059 17.9851 8.376 17.6869 8.37553C17.3887 8.37506 17.0948 8.30404 16.8294 8.16826C16.3536 7.89366 16.352 7.44727 16.8255 7.17364C17.0915 7.03929 17.3856 6.96971 17.6836 6.97058C17.9816 6.97144 18.2753 7.04273 18.5405 7.17862Z" fill="white"/>
<path d="M14.8726 5.05111C15.3483 5.32571 15.3492 5.77064 14.8757 6.04427C14.6096 6.17882 14.3156 6.2487 14.0175 6.24823C13.7194 6.24776 13.4256 6.17696 13.16 6.04158C12.6857 5.76614 12.6841 5.31976 13.1561 5.04696C13.4223 4.91224 13.7166 4.84238 14.0149 4.84311C14.3132 4.84383 14.6071 4.9151 14.8726 5.05111Z" fill="white"/>
<path d="M10.5685 7.54011C11.0442 7.81471 11.0459 8.2611 10.5724 8.53473C10.3062 8.66945 10.0119 8.7393 9.71363 8.73858C9.41531 8.73786 9.12139 8.66659 8.85588 8.53058C8.38016 8.25598 8.37935 7.81104 8.85283 7.53741C9.11862 7.40208 9.41273 7.33176 9.71099 7.33222C10.0092 7.33269 10.3031 7.40394 10.5685 7.54011Z" fill="white"/>
<path d="M12.6432 6.34005C13.1175 6.61549 13.1191 7.06188 12.6456 7.33551C12.3794 7.47023 12.0852 7.54008 11.7869 7.53936C11.4886 7.53864 11.1946 7.46737 10.9291 7.33136C10.4534 7.05676 10.4526 6.61182 10.9261 6.33819C11.1921 6.20301 11.4864 6.13271 11.7849 6.13304C12.0833 6.13336 12.3774 6.2043 12.6432 6.34005Z" fill="white"/>
<path d="M13.7249 14.4826C13.7182 14.0239 13.592 13.5749 13.3587 13.1799C13.1253 12.785 12.7929 12.4578 12.3944 12.2307L5.9643 8.58059C5.88614 8.53592 5.79755 8.51273 5.70753 8.51338C5.6175 8.51403 5.52925 8.53849 5.45174 8.58429C5.37423 8.63009 5.31023 8.69558 5.26622 8.77412C5.22222 8.85266 5.19979 8.94145 5.20121 9.03146L5.30746 16.822C5.31409 17.2807 5.44032 17.7297 5.67367 18.1246C5.90702 18.5196 6.23941 18.8468 6.63797 19.0739L13.0672 22.7225C13.1454 22.7667 13.2339 22.7894 13.3237 22.7885C13.4135 22.7876 13.5015 22.7631 13.5789 22.7174C13.6562 22.6717 13.7202 22.6064 13.7643 22.5282C13.8084 22.45 13.8312 22.3615 13.8303 22.2717L13.7249 14.4826Z" fill="#357AA1"/>
<path style="mix-blend-mode:screen" d="M10.3993 11.0999L5.95982 8.58323C5.88166 8.53856 5.79306 8.51537 5.70304 8.51602C5.61301 8.51667 5.52476 8.54114 5.44726 8.58693C5.36975 8.63273 5.30574 8.69823 5.26174 8.77677C5.21773 8.85531 5.1953 8.94409 5.19672 9.03411L5.29658 16.4127C6.71079 14.3872 8.4324 12.5946 10.3993 11.0999Z" fill="url(#paint3_linear_49_2707)"/>
<path d="M11.3292 13.4817C11.5874 13.6456 11.8031 13.8683 11.9586 14.1315C12.1142 14.3948 12.2052 14.6912 12.2242 14.9964C12.2281 15.5554 11.8342 15.7862 11.3473 15.5144C11.0892 15.3506 10.8735 15.1279 10.7179 14.8646C10.5624 14.6013 10.4714 14.305 10.4524 13.9998C10.4459 13.4364 10.8398 13.2056 11.3292 13.4817Z" fill="white"/>
<path d="M7.64867 11.4081C7.90639 11.5721 8.12172 11.7946 8.2771 12.0576C8.43248 12.3206 8.52351 12.6165 8.54276 12.9214C8.54758 13.4818 8.15366 13.7126 7.66592 13.4395C7.40819 13.2755 7.19286 13.053 7.03748 12.79C6.8821 12.527 6.79108 12.2311 6.77182 11.9262C6.76445 11.3614 7.15693 11.1315 7.64867 11.4081Z" fill="white"/>
<path d="M11.3629 17.8068C11.6211 17.9707 11.8367 18.1934 11.9923 18.4567C12.1478 18.7199 12.2388 19.0163 12.2578 19.3215C12.2618 19.8805 11.8679 20.1113 11.381 19.8396C11.1214 19.675 10.9047 19.451 10.7489 19.186C10.593 18.9211 10.5024 18.6229 10.4847 18.316C10.4795 17.7616 10.8734 17.5308 11.3629 17.8068Z" fill="white"/>
<path d="M7.68284 15.7333C7.94057 15.8973 8.1559 16.1198 8.31128 16.3828C8.46666 16.6458 8.55769 16.9417 8.57694 17.2466C8.58176 17.807 8.18784 18.0378 7.7001 17.7647C7.44237 17.6007 7.22704 17.3782 7.07166 17.1152C6.91628 16.8522 6.82525 16.5563 6.806 16.2514C6.79575 15.6883 7.19111 15.4567 7.68284 15.7333Z" fill="white"/>
<defs>
<linearGradient id="paint0_linear_49_2707" x1="22.3484" y1="15.5494" x2="13.9277" y2="15.5661" gradientUnits="userSpaceOnUse">
<stop stop-color="white"/>
<stop offset="0.04" stop-color="white" stop-opacity="0.91"/>
<stop offset="0.15" stop-color="white" stop-opacity="0.7"/>
<stop offset="0.26" stop-color="white" stop-opacity="0.51"/>
<stop offset="0.37" stop-color="white" stop-opacity="0.35"/>
<stop offset="0.49" stop-color="white" stop-opacity="0.23"/>
<stop offset="0.6" stop-color="white" stop-opacity="0.13"/>
<stop offset="0.72" stop-color="white" stop-opacity="0.06"/>
<stop offset="0.85" stop-color="white" stop-opacity="0.01"/>
<stop offset="1" stop-color="white" stop-opacity="0"/>
</linearGradient>
<linearGradient id="paint1_linear_49_2707" x1="-3363.68" y1="-2443.03" x2="-3898.09" y2="-2441.97" gradientUnits="userSpaceOnUse">
<stop stop-color="white"/>
<stop offset="0.04" stop-color="white" stop-opacity="0.91"/>
<stop offset="0.15" stop-color="white" stop-opacity="0.7"/>
<stop offset="0.26" stop-color="white" stop-opacity="0.51"/>
<stop offset="0.37" stop-color="white" stop-opacity="0.35"/>
<stop offset="0.49" stop-color="white" stop-opacity="0.23"/>
<stop offset="0.6" stop-color="white" stop-opacity="0.13"/>
<stop offset="0.72" stop-color="white" stop-opacity="0.06"/>
<stop offset="0.85" stop-color="white" stop-opacity="0.01"/>
<stop offset="1" stop-color="white" stop-opacity="0"/>
</linearGradient>
<linearGradient id="paint2_linear_49_2707" x1="3610.41" y1="363.796" x2="4667.36" y2="-242.721" gradientUnits="userSpaceOnUse">
<stop stop-color="#2699CA"/>
<stop offset="0.09" stop-color="#2B6281"/>
<stop offset="0.23" stop-color="#1E3D5A"/>
<stop offset="0.37" stop-color="#133539"/>
<stop offset="0.51" stop-color="#0B1E20"/>
<stop offset="0.66" stop-color="#050D0E"/>
<stop offset="0.82" stop-color="#010303"/>
<stop offset="1"/>
</linearGradient>
<linearGradient id="paint3_linear_49_2707" x1="5.43416" y1="12.6103" x2="10.6309" y2="12.5477" gradientUnits="userSpaceOnUse">
<stop stop-color="#3574A1"/>
<stop offset="0.09" stop-color="#2B5881"/>
<stop offset="0.23" stop-color="#1E535A"/>
<stop offset="0.37" stop-color="#133539"/>
<stop offset="0.51" stop-color="#0B1E20"/>
<stop offset="0.66" stop-color="#00383F"/>
<stop offset="0.82" stop-color="#010303"/>
<stop offset="1"/>
</linearGradient>
</defs>
</svg>
