<?xml version="1.0" encoding="utf-8"?>
<!-- Generator: Adobe Illustrator 25.3.1, SVG Export Plug-In . SVG Version: 6.00 Build 0)  -->
<svg version="1.1" id="Layer_1" xmlns="http://www.w3.org/2000/svg" xmlns:xlink="http://www.w3.org/1999/xlink" x="0px" y="0px"
	 viewBox="0 0 15 32" style="enable-background:new 0 0 15 32;" xml:space="preserve">
<style type="text/css">
	.st0{fill:#3F1B01;}
	.st1{fill:#5B2A09;}
	.st2{fill:#BC6E39;}
	.st3{fill:#B27039;}
	.st4{fill:#DDA036;}
	.st5{fill:#C46F14;}
	.st6{fill:#FFCD9F;}
</style>
<g>
	<path class="st0" d="M7.5,29.8L7.5,29.8c-0.7,0-1.2-0.6-1.2-1.2V12.2c0-0.7,0.6-1.2,1.2-1.2h0c0.7,0,1.2,0.6,1.2,1.2v16.4
		C8.7,29.3,8.2,29.8,7.5,29.8z"/>
	<path class="st1" d="M7.8,28.8L7.8,28.8c-0.3,0-0.5-0.2-0.5-0.5V11.2c0-0.3,0.2-0.5,0.5-0.5h0c0.3,0,0.5,0.2,0.5,0.5v17.2
		C8.3,28.6,8.1,28.8,7.8,28.8z"/>
	<g>
		<path class="st2" d="M7.4,2.4C7,2.4,3.8,2.9,3.8,6.9c0,3,1.1,3.4,1.9,4.6c0.2,0.2,0.3,0.5,0.4,0.9h2.8c0.1-0.3,0.2-0.6,0.4-0.8
			c0.7-1.2,1.9-1.6,1.9-4.7C11.1,2.8,7.9,2.4,7.4,2.4z"/>
		<path class="st3" d="M6.9,12.3c0.7-0.1,1.4-0.1,2.1,0.1c0.7-1.7,2.2-1.8,2.1-5.3c0-4.1-3.2-4.6-3.7-4.6C7,2.4,3.9,2.9,3.9,7
			c0,3.5,1.5,3.6,2.2,5.3C6.3,12.3,6.6,12.3,6.9,12.3z"/>
		<path class="st4" d="M3.6,7.2c-0.5,0-0.9-0.3-0.9-0.7c0-0.4,0.4-0.7,0.9-0.7l7.8,0c0.5,0,0.9,0.3,0.9,0.7c0,0.4-0.4,0.7-0.9,0.7
			L3.6,7.2z"/>
		<path class="st4" d="M3.9,8.9C3.4,8.9,3,8.6,3,8.2c0-0.4,0.4-0.7,0.9-0.7l7.2,0c0.5,0,0.9,0.3,0.9,0.7c0,0.4-0.4,0.7-0.9,0.7
			L3.9,8.9z"/>
		<path class="st4" d="M4.5,10.7c-0.5,0-0.9-0.3-0.9-0.7c0-0.4,0.4-0.7,0.9-0.7l6,0c0.5,0,0.9,0.3,0.9,0.7c0,0.4-0.4,0.7-0.9,0.7
			L4.5,10.7z"/>
		<path class="st4" d="M5.2,12.4c-0.5,0-0.9-0.3-0.9-0.7c0-0.4,0.4-0.7,0.9-0.7l4.6,0c0.5,0,0.9,0.3,0.9,0.7c0,0.4-0.4,0.7-0.9,0.7
			L5.2,12.4z"/>
		<path class="st5" d="M12,7c-0.2,0-0.3,0-0.5-0.1c-0.1,0-0.2,0-0.3,0c-0.4,0-0.7,0-1,0c-0.9,0-1.8,0-2.8,0c-0.9,0-1.8,0.1-2.7,0
			C4.4,6.8,4,6.8,3.6,6.8C3.3,6.8,3.2,6.6,3,6.4C4.4,6,5.8,6.1,7.2,6.1c0.8,0,1.6,0,2.3,0c0.4,0,0.8,0,1.3-0.1c0.2,0,0.5,0,0.8,0
			c0.2,0,0.3-0.1,0.5-0.1c-0.2-0.1-0.4-0.2-0.7-0.2l-7.8,0c-0.5,0-0.9,0.3-0.9,0.7c0,0.4,0.4,0.7,0.9,0.7l7.8,0
			C11.6,7.1,11.8,7.1,12,7z"/>
		<path class="st6" d="M7.8,6.8c0.8,0,1.5-0.1,2.3-0.1c0.2,0,1.2,0.1,1.3-0.2c0,0,0,0,0,0c0.1,0,0.1-0.1,0-0.2c-0.1,0-0.2,0-0.3,0
			c-0.4-0.1-0.8-0.1-1.2-0.1c-0.7,0-1.3,0-2,0c-0.2,0-0.4,0-0.6,0c-0.7,0-1.4,0-2,0c-0.3,0-0.6,0-0.9,0c-0.2,0-0.3,0-0.5,0.1
			c0,0,0,0.1,0,0.1C4,6.7,4.2,6.7,4.4,6.7c0.4,0.1,0.7,0.1,1.1,0.1C6.2,6.8,7,6.8,7.8,6.8z"/>
		<path class="st6" d="M11.1,6.8c0,0,0.1-0.1,0.1-0.1c0,0,0,0,0,0c0.1-0.1,0.2-0.3,0.1-0.4c0,0-0.1-0.1-0.1-0.1c0,0-0.1,0-0.1-0.1
			c0,0-0.2-0.1-0.1,0c-0.1-0.1-0.2-0.1-0.4-0.1c-0.3,0-0.5,0.3-0.5,0.6c0,0.3,0.3,0.5,0.5,0.5C10.9,6.9,11,6.9,11.1,6.8z"/>
		<path class="st6" d="M9.8,6.5C9.8,6.5,9.8,6.5,9.8,6.5c0-0.1,0-0.1,0-0.1C9.8,6.2,9.6,6,9.4,6c0,0-0.1,0-0.1,0
			C9.2,6,9.2,6.1,9.1,6.2c0,0-0.1,0.1-0.1,0.1c0,0.1,0,0.3,0.2,0.4C9.4,6.8,9.7,6.7,9.8,6.5z"/>
		<path class="st5" d="M11.9,8.5c-0.3,0.3-1.1,0.3-1.5,0.3c-0.8,0-1.6,0-2.4,0.1c-0.9,0-1.7,0-2.5-0.1c-0.4,0-0.8-0.1-1.2-0.3
			c0-0.2,0.1-0.4,0.4-0.4C5,8,5.4,7.9,5.8,7.9c0.7-0.1,1.4,0,2.1,0c1.3,0,2.7-0.1,4,0c-0.1-0.2-0.5-0.4-0.8-0.4l-7.2,0
			C3.4,7.5,3,7.8,3,8.2c0,0.4,0.4,0.7,0.9,0.7l7.2,0C11.4,8.9,11.8,8.7,11.9,8.5z"/>
		<path class="st5" d="M4.5,10.7l6,0c0.4,0,0.7-0.2,0.8-0.4c-0.4,0.1-0.8,0.2-1.3,0.2c-0.8,0-1.6,0-2.5,0c-0.4,0-0.8,0-1.2,0
			c0,0,0,0,0,0c-0.6,0-1.3-0.1-1.9-0.3c0,0,0,0,0,0c0-0.1,0.1-0.2,0.2-0.3c0.3-0.1,0.7-0.1,1.1-0.1c0.7,0,1.3,0,2-0.1
			c0.7,0,1.3,0,2-0.1c0.5,0,1.3-0.1,1.7,0.2c-0.1-0.2-0.5-0.4-0.8-0.4l-6,0C4,9.3,3.6,9.6,3.6,10C3.6,10.4,4,10.7,4.5,10.7z"/>
		<path class="st5" d="M10.5,12.1c-0.7-0.1-1.4,0-2.1-0.1c-0.8,0-1.6,0.1-2.4,0.1c0,0,0,0,0,0c-0.1-0.1-0.3-0.2-0.4-0.3
			c0.1-0.1,0.2-0.2,0.2-0.2c0,0,0,0,0,0c0.2,0,0.5,0,0.7,0c0.5,0,1-0.1,1.5-0.2c0.1,0,0.3,0,0.4,0c0.7-0.1,1.5-0.1,2.2,0.2
			c-0.1-0.3-0.5-0.5-0.9-0.5l-4.6,0c-0.5,0-0.9,0.3-0.9,0.7c0,0.4,0.4,0.7,0.9,0.7l4.6,0C10.1,12.4,10.4,12.3,10.5,12.1z"/>
		<path class="st4" d="M4.1,5.3C3.6,5.3,3.2,5,3.2,4.6c0-0.4,0.4-0.7,0.9-0.7l6.7,0c0.5,0,0.9,0.3,0.9,0.7c0,0.4-0.4,0.7-0.9,0.7
			L4.1,5.3z"/>
		<path class="st5" d="M11.5,5.1C11.5,5.1,11.5,5.1,11.5,5.1c-0.7,0.1-1.4,0-2.1,0c0,0,0,0-0.1,0c-0.9,0-1.8,0-2.8,0
			c-0.6,0-1.2,0-1.7,0c-0.2,0-0.6,0-0.9,0C3.9,5,3.8,4.9,3.8,4.9c0,0,0-0.1-0.1-0.1c0,0,0,0-0.1-0.1c0,0,0,0,0,0c0,0,0,0,0,0
			c0.3-0.1,0.6-0.1,1-0.1c0.7,0,1.5,0,2.2-0.1c0.8,0,1.7-0.1,2.5-0.2c0.2,0,0.4,0,0.6,0c0.4-0.1,0.8-0.1,1.1-0.1c0.2,0,0.3,0,0.5,0
			c-0.2-0.2-0.4-0.3-0.7-0.3l-6.7,0c-0.5,0-0.9,0.3-0.9,0.7c0,0.4,0.4,0.7,0.9,0.7l6.7,0C11.1,5.3,11.4,5.2,11.5,5.1z"/>
		<path class="st4" d="M5.2,3.6c-0.5,0-0.9-0.3-0.9-0.7c0-0.4,0.4-0.7,0.9-0.7l4.6,0c0.5,0,0.9,0.3,0.9,0.7c0,0.4-0.4,0.7-0.9,0.7
			L5.2,3.6z"/>
		<path class="st5" d="M5.2,3.6l4.6,0c0.4,0,0.7-0.2,0.8-0.4c-0.6,0-1.1,0-1.7,0C7.8,3.1,6.7,3.4,5.6,3.3c-0.2,0-0.4-0.1-0.5-0.2
			C4.6,2.8,5.5,2.6,5.5,2.6c0,0,0,0,0,0c0.6-0.1,1.2-0.1,1.8-0.1c1,0,2,0,3,0.1c0.1,0,0.2,0.1,0.3,0.1c-0.1-0.3-0.5-0.5-0.9-0.5
			l-4.6,0c-0.5,0-0.9,0.3-0.9,0.7C4.3,3.3,4.7,3.6,5.2,3.6z"/>
		<path class="st6" d="M7.2,4.9c1.2,0.1,2.4,0,3.6,0c0.1,0,0.2-0.1,0.3-0.1c0.1-0.1,0.3-0.1,0.4-0.2c0,0,0,0,0,0
			c0-0.2-0.2-0.3-0.4-0.4c0,0,0,0-0.1,0c0,0-0.1,0-0.1,0c-0.9,0.3-1.8,0.2-2.7,0.2c-1,0-2.1,0-3.1,0.1C5,4.6,5,4.8,5,4.9
			C5.8,4.9,6.5,4.9,7.2,4.9z"/>
		<path class="st6" d="M9.1,3.1c0.4,0,0.7,0.1,1,0c0.1,0,0.1-0.1,0.1-0.2c0,0,0-0.1,0-0.1C9.8,2.5,8.9,2.7,8.4,2.7
			c-0.9,0-1.8,0.1-2.6,0.2c0,0,0,0,0.1,0.1c0.6,0.3,1.4,0.1,2,0.1C8.2,3.1,8.7,3.1,9.1,3.1z"/>
		<path class="st6" d="M11.4,8.5c0.1,0,0.1-0.1,0.1-0.1c0.1,0,0.1-0.1,0.1-0.2c0,0-0.1-0.1-0.1-0.1C10.8,7.8,9.8,7.9,9,7.9
			c-0.1,0-0.1,0-0.2,0C8,8,7.1,8.1,6.2,8.2l0,0.1c0,0.1,0,0.1,0.1,0.1c0.6,0.3,1.5,0.2,2.2,0.2C9.5,8.6,10.4,8.8,11.4,8.5z"/>
		<path class="st6" d="M8.5,10.3c0.6,0,1.1,0,1.7,0c0.2,0,0.6,0,0.7-0.2c0.1-0.1,0.1-0.2,0-0.3c0,0,0,0,0,0
			c-0.1-0.1-0.3-0.1-0.4-0.1c-0.3,0-0.5-0.1-0.8-0.1c-0.5,0-1,0.1-1.4,0.2c-0.7,0.1-1.3,0.2-2,0.3c0,0,0,0,0,0
			C6.7,10.5,7.9,10.3,8.5,10.3z"/>
		<path class="st6" d="M10.3,11.8c0.1,0,0.1-0.1,0.1-0.1c-0.4-0.3-1.4-0.2-1.9-0.2c-0.4,0-0.8,0.1-1.1,0.2c0,0,0,0,0,0
			C7.5,12,8,11.9,8.3,11.9C8.9,12,9.7,12,10.3,11.8z"/>
		<g>
			<path class="st6" d="M10.5,4.3C10.5,4.3,10.5,4.3,10.5,4.3C10.5,4.3,10.5,4.3,10.5,4.3z"/>
			<path class="st6" d="M10.8,5C10.9,4.9,10.9,4.9,10.8,5c0.1-0.1,0.1-0.1,0.1-0.2c0-0.1,0-0.2-0.1-0.2c0,0-0.1,0-0.1-0.1
				c0,0-0.1-0.1-0.1-0.1c0,0,0,0,0,0c0,0,0,0-0.1,0c0,0-0.1,0-0.1,0c-0.2,0-0.4,0-0.4,0.2C10,4.6,10,4.7,10,4.8
				c0,0.2,0.2,0.4,0.5,0.4C10.7,5.2,10.8,5.1,10.8,5z"/>
		</g>
		<path class="st6" d="M9.7,4.8c0-0.1,0-0.1,0-0.2c0,0,0-0.1,0-0.1c0-0.1-0.1-0.1-0.2-0.1c-0.1,0-0.1,0-0.2,0
			C9.2,4.5,9.1,4.6,9.1,4.8C9.2,4.9,9.3,5,9.4,5C9.5,5,9.6,4.9,9.7,4.8z"/>
		<path class="st6" d="M9.2,3.2C9.3,3.1,9.3,3.1,9.3,3c0,0,0,0,0,0c0-0.2,0-0.4-0.2-0.4c-0.1,0-0.3,0-0.4,0C8.6,2.6,8.5,2.8,8.5,3
			c0,0.1,0.2,0.3,0.3,0.3C9,3.3,9.1,3.3,9.2,3.2z"/>
		<path class="st6" d="M9.8,8.6c0.1-0.1,0.1-0.2,0.1-0.3c0,0,0,0,0,0C10,8.1,9.9,8,9.8,7.9c0,0-0.1,0-0.1,0c0.1,0,0,0-0.1,0
			c-0.1,0-0.1,0-0.2,0C9.3,7.9,9.1,8,9.1,8.1C9,8.2,9,8.4,9.1,8.5C9.3,8.8,9.7,8.8,9.8,8.6z"/>
		<path class="st6" d="M10.7,10.3C10.7,10.3,10.7,10.3,10.7,10.3c0.1,0,0.1-0.1,0.1-0.1c0.4-0.5-0.4-1.1-0.8-0.7
			C9.9,9.6,9.8,9.7,9.8,9.9c0,0.1,0,0.2,0.1,0.4c0.1,0.1,0.2,0.2,0.4,0.2C10.4,10.4,10.6,10.4,10.7,10.3z"/>
		<path class="st6" d="M9.9,12c0.1,0,0.3-0.1,0.3-0.2c0,0,0-0.1,0-0.1c0-0.1-0.1-0.2-0.2-0.3c-0.1-0.1-0.2-0.1-0.3,0
			c0,0-0.1,0.1-0.1,0.1c-0.1,0.1-0.1,0.1-0.1,0.2c0,0.1,0.1,0.2,0.2,0.3C9.8,12,9.9,12,9.9,12z"/>
	</g>
</g>
</svg>
