<?xml version="1.0" encoding="utf-8"?>
<!-- Generator: Adobe Illustrator 25.3.1, SVG Export Plug-In . SVG Version: 6.00 Build 0)  -->
<svg version="1.1" id="Layer_1" xmlns="http://www.w3.org/2000/svg" xmlns:xlink="http://www.w3.org/1999/xlink" x="0px" y="0px"
	 viewBox="0 0 24 32" style="enable-background:new 0 0 24 32;" xml:space="preserve">
<style type="text/css">
	.st0{fill:#6D3C0F;}
	.st1{fill:#753E12;}
	.st2{fill:#4F270C;}
	.st3{fill:#844317;}
	.st4{fill:#512A10;}
	.st5{fill:#994F1D;}
	.st6{fill:#964E1E;}
	.st7{fill:#AD561C;}
	.st8{fill:#727989;}
	.st9{fill:#454A54;}
	.st10{opacity:0.35;fill:#562A06;}
	.st11{fill:#C66914;}
	.st12{fill:#3A220C;}
	.st13{fill:#FFA300;}
	.st14{fill:#FCC53A;}
</style>
<path class="st0" d="M21.1,5.4H2.9c-2.6,7.3-2.5,14.5,0,21.8C3.4,28,7,28.4,12,28.4c5,0,8.3-0.4,9.1-1.2
	C23.7,19.9,23.7,12.6,21.1,5.4z"/>
<path class="st1" d="M4.6,27.9c1.6,0.3,4.2,0.5,7.4,0.5c3.2,0,5.8-0.2,7.4-0.5c1.4-7.5,1.2-15-0.5-22.5H5.1
	C3.4,12.9,3.2,20.4,4.6,27.9z"/>
<path class="st2" d="M19.4,27.9c1.2-7.6,1.1-14.7-0.5-22.5C20.8,12.9,21,20.4,19.4,27.9z"/>
<path class="st2" d="M5.1,5.4c-1.5,7.3-1.7,15-0.5,22.5C3,20,3.3,12.3,5.1,5.4z"/>
<path class="st3" d="M7.3,28.2c1.3,0.1,2.9,0.2,4.7,0.2c1.8,0,3.4-0.1,4.7-0.2c0.9-7.6,0.9-15.2-0.3-22.9H7.6
	C6.5,13,6.4,20.6,7.3,28.2z"/>
<path class="st4" d="M7.6,5.4c-1,8.2-1,15.6-0.3,22.9C6.3,21.3,6.2,13.1,7.6,5.4z"/>
<path class="st5" d="M16.7,28.2c0.7-7.3,0.7-14.5-0.3-22.9C17.6,12.3,17.8,20.6,16.7,28.2z"/>
<path class="st6" d="M9.9,28.4c0.7,0,1.4,0,2.1,0c0.7,0,1.4,0,2.1,0c0.4-7.7,0.4-15.3-0.1-23H10C9.5,13,9.5,20.7,9.9,28.4z"/>
<path class="st7" d="M14.1,28.4c0.1-7.8,0.2-13.5-0.1-23C14.7,12.4,14.8,21.4,14.1,28.4z"/>
<path class="st7" d="M10,5.4c-0.2,9.3-0.3,11.2-0.1,23C9.2,21.3,9.3,12.2,10,5.4z"/>
<g>
	<path class="st8" d="M1.2,20.8c0.1,0.5,0.2,1,0.3,1.5c2.9,0.5,6.2,0.8,9.8,0.8c4.2,0,8.2-0.4,11.3-1.1c0.1-0.5,0.2-1,0.3-1.6
		c-3.1,0.8-7.2,1.2-11.6,1.2C7.6,21.6,4.1,21.4,1.2,20.8z"/>
	<path class="st9" d="M1.5,22.3c0.9,0.1,1.8,0.3,2.6,0.4c0.9,0.1,1.8,0.2,2.6,0.2c1.8,0.1,3.5,0.2,5.3,0.1c1.8,0,3.5-0.1,5.3-0.3
		c0.9-0.1,1.8-0.2,2.6-0.3c0.9-0.1,1.8-0.3,2.6-0.5c-0.9,0.2-1.7,0.4-2.6,0.5c-0.9,0.1-1.8,0.2-2.6,0.3c-1.8,0.2-3.5,0.3-5.3,0.3
		c-1.8,0-3.5,0-5.3-0.2c-0.9-0.1-1.8-0.1-2.6-0.3C3.2,22.6,2.3,22.5,1.5,22.3z"/>
</g>
<g>
	<path class="st8" d="M1.6,9.3l-0.3,1.5c2.9,0.5,6.4,0.8,10,0.8c4.2,0,8.2-0.4,11.3-1.1L22.4,9c-3.1,0.8-6.7,1.1-11.1,1.1
		C7.6,10.1,4.5,9.8,1.6,9.3z"/>
	<path class="st9" d="M1.3,10.8c6.2,1,15.1,1,21.3-0.3C16.3,11.9,7.5,11.9,1.3,10.8z"/>
</g>
<path class="st10" d="M9,7.2L5.6,5.4H2.9C2.4,6.7,2,8,1.8,9.3c-0.1,0-0.1,0-0.2,0l-0.3,1.5c0.1,0,0.1,0,0.2,0
	c-0.6,3.3-0.6,6.7-0.1,10c0,0-0.1,0-0.1,0c0.1,0.5,0.2,1,0.3,1.5c0,0,0.1,0,0.1,0c0.3,1.6,0.8,3.2,1.3,4.8C3.4,28,7,28.4,12,28.4
	c2.7,0,4.8-0.1,6.4-0.4C5.8,25.9,9,7.2,9,7.2z"/>
<path class="st11" d="M21.1,5.5c0,1-4.1,1.9-9.1,1.9c-5,0-9.1-0.8-9.1-1.9c0-1,4.1-1.9,9.1-1.9C17,3.6,21.1,4.4,21.1,5.5z"/>
<ellipse class="st12" cx="12" cy="5.5" rx="8.7" ry="1.8"/>
<path class="st13" d="M5.9,6.8c0,0,6-1.5,12.3,0C18.2,6.8,12.1,7.9,5.9,6.8z"/>
<path class="st14" d="M14.9,6.8c-0.8-0.2-1.5-0.4-2.3-0.3c-0.8,0.1-1.3,0.2-2.7,0C8.6,6.4,8.8,7,8.8,7c0,0,0,0,0,0
	c0,0,0.2-0.3,0.7-0.4c0.4-0.1,1.8,0.4,2.9,0.3c1.1-0.1,1-0.2,1.8,0C14.5,6.9,15,7,15.4,7.1c0.2,0,0.5,0,0.7-0.1
	C15.8,7,15.3,6.9,14.9,6.8z"/>
</svg>
