<svg width="28" height="27" viewBox="0 0 28 27" fill="none" xmlns="http://www.w3.org/2000/svg">
<path d="M12.2286 3.84199L6.26341 7.31315C5.79273 7.58796 5.40204 7.98099 5.13002 8.45328C4.858 8.92558 4.7141 9.46075 4.71259 10.0058L4.69595 17.3189C4.69527 17.8684 4.83959 18.4084 5.11435 18.8843C5.38911 19.3602 5.78458 19.7552 6.26082 20.0293L12.2702 23.4926C12.7463 23.7677 13.2866 23.912 13.8365 23.9108C14.3863 23.9097 14.9261 23.7632 15.401 23.4862L21.3662 20.015C21.8369 19.7406 22.2277 19.3479 22.4999 18.8758C22.7721 18.4037 22.9161 17.8688 22.9178 17.3239L22.933 10.0116C22.9335 9.4618 22.789 8.9216 22.5142 8.44548C22.2393 7.96935 21.8437 7.57414 21.3673 7.29969L15.3579 3.8364C14.8819 3.56213 14.3419 3.41824 13.7925 3.41922C13.2431 3.42021 12.7036 3.56603 12.2286 3.84199Z" fill="white"/>
<path d="M13.3533 4.03661C13.2757 3.99125 13.1874 3.96757 13.0975 3.96805C13.0076 3.96756 12.9192 3.99125 12.8416 4.03661L6.45062 7.75734C6.05449 7.98873 5.72561 8.31951 5.49651 8.71696C5.26741 9.11442 5.14603 9.56479 5.14435 10.0235L5.12573 17.8146C5.12573 17.9044 5.14937 17.9926 5.19429 18.0704C5.2392 18.1482 5.3038 18.2128 5.3816 18.2577C5.45939 18.3026 5.54764 18.3263 5.63746 18.3263C5.72729 18.3263 5.81554 18.3027 5.89334 18.2577L12.2852 14.5384C12.6811 14.3068 13.0098 13.976 13.2388 13.5786C13.4679 13.1812 13.5894 12.7309 13.5914 12.2722L13.6092 4.47979C13.6103 4.38976 13.5871 4.3011 13.542 4.22312C13.497 4.14515 13.4318 4.08072 13.3533 4.03661Z" fill="#357AA1"/>
<g opacity="0.2">
<path opacity="0.7" d="M13.4181 4.03654C13.3405 3.99118 13.2522 3.9675 13.1623 3.96798C13.0724 3.9675 12.984 3.99118 12.9064 4.03654L9.65008 5.93203L5.20479 13.6583L5.19471 17.8217C5.19348 17.9121 5.21669 18.0011 5.26188 18.0794C5.30706 18.1576 5.37255 18.2222 5.45141 18.2664L13.5741 4.17628C13.533 4.11882 13.4798 4.07112 13.4181 4.03654Z" fill="url(#paint0_linear_49_2706)"/>
<path opacity="0.6" d="M13.6661 8.04509L13.6706 5.51088L6.50753 17.9385L8.69813 16.6621L13.6661 8.04509Z" fill="url(#paint1_linear_49_2706)"/>
</g>
<path d="M10.7279 10.736C10.7307 11.0417 10.6614 11.3438 10.5257 11.6177C10.3899 11.8917 10.1916 12.1298 9.94671 12.3128C9.4797 12.6211 9.07181 12.4163 9.03591 11.8557C9.03248 11.5499 9.10148 11.2476 9.23726 10.9736C9.37303 10.6995 9.57174 10.4615 9.81713 10.2789C10.2833 9.9692 10.6912 10.174 10.7279 10.736Z" fill="white"/>
<path d="M6.25415 19.4245L12.4628 23.0266C12.91 23.2842 13.417 23.4198 13.933 23.4198C14.4491 23.4197 14.956 23.2841 15.4032 23.0265L21.5727 19.4573C21.6566 19.4077 21.7261 19.3373 21.7745 19.2527C21.8229 19.1682 21.8485 19.0726 21.8488 18.9752C21.8491 18.8778 21.8241 18.782 21.7762 18.6972C21.7284 18.6124 21.6593 18.5415 21.5757 18.4915L15.3679 14.8907C14.9209 14.6323 14.4138 14.4961 13.8975 14.4959C13.3812 14.4956 12.8739 14.6314 12.4267 14.8894L6.25717 18.4587C6.17332 18.5082 6.10378 18.5787 6.05538 18.6632C6.00697 18.7477 5.98137 18.8433 5.98106 18.9407C5.98076 19.0381 6.00577 19.1339 6.05364 19.2187C6.10152 19.3035 6.17061 19.3744 6.25415 19.4245Z" fill="#357AA1"/>
<path style="mix-blend-mode:screen" d="M12.4628 23.0266C12.91 23.2842 13.417 23.4198 13.933 23.4198C14.4491 23.4197 14.956 23.2841 15.4032 23.0265L21.5727 19.4573C21.6566 19.4077 21.7261 19.3373 21.7745 19.2527C21.8229 19.1682 21.8485 19.0726 21.8488 18.9752C21.8491 18.8778 21.8241 18.782 21.7762 18.6972C21.7284 18.6124 21.6593 18.5415 21.5757 18.4915L17.0999 15.8963C16.9256 16.0194 16.7514 16.1426 16.5739 16.2599C13.6487 18.2121 10.2836 19.4056 6.78199 19.7328L12.4628 23.0266Z" fill="url(#paint2_linear_49_2706)"/>
<path d="M13.5313 17.1437C13.0571 16.8683 13.0554 16.4219 13.5275 16.1491C13.7938 16.014 14.0882 15.9439 14.3868 15.9445C14.6854 15.945 14.9796 16.0163 15.2454 16.1524C15.7211 16.427 15.7219 16.8719 15.2398 17.1506C14.9745 17.2837 14.6815 17.3524 14.3847 17.3512C14.0879 17.35 13.7956 17.2789 13.5313 17.1437Z" fill="white"/>
<path d="M11.4585 18.3429C10.9843 18.0675 10.9826 17.6211 11.4561 17.3475C11.7223 17.2128 12.0165 17.1429 12.3148 17.1436C12.6132 17.1443 12.9071 17.2156 13.1726 17.3516C13.6469 17.6271 13.6491 18.0712 13.1756 18.3448C12.9096 18.48 12.6153 18.5503 12.3169 18.5499C12.0184 18.5496 11.7243 18.4787 11.4585 18.3429Z" fill="white"/>
<path d="M9.22852 19.6319C8.7528 19.3573 8.75199 18.9124 9.22402 18.6396C9.48992 18.5046 9.78398 18.4345 10.0822 18.435C10.3804 18.4355 10.6742 18.5065 10.9397 18.6423C11.4154 18.9169 11.417 19.3633 10.9436 19.6369C10.6775 19.7713 10.3835 19.8408 10.0854 19.84C9.78739 19.8391 9.49378 19.7678 9.22852 19.6319Z" fill="white"/>
<path d="M12.8964 21.7594C12.4207 21.4848 12.4199 21.0399 12.8934 20.7663C13.1594 20.6317 13.4534 20.5618 13.7515 20.5623C14.0496 20.5628 14.3434 20.6336 14.609 20.769C15.0833 21.0444 15.0849 21.4908 14.6129 21.7636C14.3467 21.8983 14.0525 21.9682 13.7542 21.9674C13.4558 21.9667 13.1619 21.8954 12.8964 21.7594Z" fill="white"/>
<path d="M17.2006 19.2704C16.7248 18.9958 16.7232 18.5494 17.1967 18.2758C17.4628 18.1411 17.7571 18.0712 18.0554 18.072C18.3537 18.0727 18.6477 18.144 18.9132 18.28C19.3889 18.5546 19.3897 18.9995 18.9162 19.2731C18.6504 19.4085 18.3563 19.4788 18.0581 19.4783C17.7598 19.4779 17.4659 19.4066 17.2006 19.2704Z" fill="white"/>
<path d="M15.1259 20.4705C14.6516 20.1951 14.6499 19.7487 15.1234 19.475C15.3896 19.3403 15.6839 19.2705 15.9822 19.2712C16.2805 19.2719 16.5744 19.3432 16.8399 19.4792C17.3156 19.7538 17.3164 20.1987 16.843 20.4724C16.5769 20.6075 16.2826 20.6778 15.9842 20.6775C15.6858 20.6772 15.3916 20.6062 15.1259 20.4705Z" fill="white"/>
<path d="M14.0442 12.328C14.0508 12.7867 14.177 13.2357 14.4104 13.6306C14.6437 14.0255 14.9761 14.3527 15.3747 14.5798L21.8047 18.23C21.8829 18.2746 21.9715 18.2978 22.0615 18.2972C22.1515 18.2965 22.2398 18.2721 22.3173 18.2263C22.3948 18.1805 22.4588 18.115 22.5028 18.0364C22.5468 17.9579 22.5693 17.8691 22.5678 17.7791L22.4616 9.98854C22.4549 9.52986 22.3287 9.08086 22.0954 8.68592C21.862 8.29098 21.5296 7.96378 21.1311 7.73667L14.7019 4.088C14.6236 4.04388 14.5351 4.02112 14.4453 4.02203C14.3555 4.02294 14.2675 4.04747 14.1902 4.09316C14.1128 4.13885 14.0489 4.2041 14.0048 4.28234C13.9606 4.36058 13.9379 4.44906 13.9388 4.53888L14.0442 12.328Z" fill="#357AA1"/>
<path style="mix-blend-mode:screen" d="M17.3697 15.7107L21.8092 18.2273C21.8874 18.272 21.976 18.2952 22.066 18.2945C22.156 18.2939 22.2443 18.2694 22.3218 18.2236C22.3993 18.1778 22.4633 18.1123 22.5073 18.0338C22.5513 17.9552 22.5737 17.8665 22.5723 17.7764L22.4725 10.3978C21.0583 12.4234 19.3366 14.2159 17.3697 15.7107Z" fill="url(#paint3_linear_49_2706)"/>
<path d="M16.4398 13.3289C16.1816 13.165 15.966 12.9423 15.8104 12.679C15.6549 12.4157 15.5639 12.1194 15.5449 11.8142C15.5409 11.2552 15.9348 11.0244 16.4217 11.2961C16.6799 11.46 16.8956 11.6827 17.0511 11.9459C17.2067 12.2092 17.2977 12.5056 17.3167 12.8108C17.3232 13.3741 16.9293 13.6049 16.4398 13.3289Z" fill="white"/>
<path d="M20.1204 15.4024C19.8627 15.2385 19.6473 15.0159 19.4919 14.753C19.3366 14.49 19.2455 14.194 19.2263 13.8892C19.2215 13.3287 19.6154 13.0979 20.1031 13.3711C20.3608 13.535 20.5762 13.7576 20.7316 14.0205C20.8869 14.2835 20.978 14.5795 20.9972 14.8843C21.0046 15.4491 20.6121 15.6791 20.1204 15.4024Z" fill="white"/>
<path d="M16.4062 9.00373C16.148 8.83985 15.9323 8.61715 15.7768 8.35388C15.6212 8.09061 15.5302 7.79425 15.5112 7.48905C15.5072 6.93002 15.9012 6.69922 16.3881 6.97097C16.6476 7.13556 16.8643 7.35959 17.0202 7.62452C17.176 7.88946 17.2666 8.18768 17.2844 8.49455C17.2895 9.04899 16.8956 9.2798 16.4062 9.00373Z" fill="white"/>
<path d="M20.0862 11.0772C19.8285 10.9133 19.6131 10.6907 19.4578 10.4278C19.3024 10.1648 19.2114 9.86882 19.1921 9.56398C19.1873 9.00351 19.5812 8.77271 20.0689 9.04589C20.3267 9.20984 20.542 9.43237 20.6974 9.69534C20.8528 9.95832 20.9438 10.2543 20.963 10.5591C20.9733 11.1222 20.5779 11.3539 20.0862 11.0772Z" fill="white"/>
<defs>
<linearGradient id="paint0_linear_49_2706" x1="5.42061" y1="11.2611" x2="13.8414" y2="11.2444" gradientUnits="userSpaceOnUse">
<stop stop-color="white"/>
<stop offset="0.04" stop-color="white" stop-opacity="0.91"/>
<stop offset="0.15" stop-color="white" stop-opacity="0.7"/>
<stop offset="0.26" stop-color="white" stop-opacity="0.51"/>
<stop offset="0.37" stop-color="white" stop-opacity="0.35"/>
<stop offset="0.49" stop-color="white" stop-opacity="0.23"/>
<stop offset="0.6" stop-color="white" stop-opacity="0.13"/>
<stop offset="0.72" stop-color="white" stop-opacity="0.06"/>
<stop offset="0.85" stop-color="white" stop-opacity="0.01"/>
<stop offset="1" stop-color="white" stop-opacity="0"/>
</linearGradient>
<linearGradient id="paint1_linear_49_2706" x1="3391.45" y1="2469.84" x2="3925.86" y2="2468.78" gradientUnits="userSpaceOnUse">
<stop stop-color="white"/>
<stop offset="0.04" stop-color="white" stop-opacity="0.91"/>
<stop offset="0.15" stop-color="white" stop-opacity="0.7"/>
<stop offset="0.26" stop-color="white" stop-opacity="0.51"/>
<stop offset="0.37" stop-color="white" stop-opacity="0.35"/>
<stop offset="0.49" stop-color="white" stop-opacity="0.23"/>
<stop offset="0.6" stop-color="white" stop-opacity="0.13"/>
<stop offset="0.72" stop-color="white" stop-opacity="0.06"/>
<stop offset="0.85" stop-color="white" stop-opacity="0.01"/>
<stop offset="1" stop-color="white" stop-opacity="0"/>
</linearGradient>
<linearGradient id="paint2_linear_49_2706" x1="-3582.65" y1="-336.986" x2="-4639.6" y2="269.531" gradientUnits="userSpaceOnUse">
<stop stop-color="#2699CA"/>
<stop offset="0.09" stop-color="#2B6281"/>
<stop offset="0.23" stop-color="#1E3D5A"/>
<stop offset="0.37" stop-color="#133539"/>
<stop offset="0.51" stop-color="#0B1E20"/>
<stop offset="0.66" stop-color="#050D0E"/>
<stop offset="0.82" stop-color="#010303"/>
<stop offset="1"/>
</linearGradient>
<linearGradient id="paint3_linear_49_2706" x1="22.3349" y1="14.2002" x2="17.1381" y2="14.2628" gradientUnits="userSpaceOnUse">
<stop stop-color="#3574A1"/>
<stop offset="0.09" stop-color="#2B5881"/>
<stop offset="0.23" stop-color="#1E535A"/>
<stop offset="0.37" stop-color="#133539"/>
<stop offset="0.51" stop-color="#0B1E20"/>
<stop offset="0.66" stop-color="#00383F"/>
<stop offset="0.82" stop-color="#010303"/>
<stop offset="1"/>
</linearGradient>
</defs>
</svg>
